<?xml version="1.0" encoding="utf-8"?>
<!-- Generator: Adobe Illustrator 27.0.0, SVG Export Plug-In . SVG Version: 6.00 Build 0)  -->
<svg version="1.1" id="Ebene_1" xmlns="http://www.w3.org/2000/svg" xmlns:xlink="http://www.w3.org/1999/xlink" x="0px" y="0px"
	 viewBox="0 0 409.22 308.54" style="enable-background:new 0 0 409.22 308.54;" xml:space="preserve">
<style type="text/css">
	.st0{fill:url(#SVGID_1_);}
	.st1{fill:url(#SVGID_00000016038906992424276310000011127794345455558799_);}
	.st2{fill:url(#SVGID_00000090998825127680883850000014721128235039408313_);}
	.st3{fill:url(#SVGID_00000068645700772922322260000003135182389830905482_);}
	.st4{fill:url(#SVGID_00000065759221871290524920000006532912119158250906_);}
	.st5{fill:url(#SVGID_00000103972970216885707690000007281822534473939845_);}
	.st6{fill:url(#SVGID_00000126315997475432630110000003063813402422162101_);}
	.st7{fill:url(#SVGID_00000110462432595903220620000010164636383873601719_);}
	.st8{fill:url(#SVGID_00000018218270820373925610000009748184739842906532_);}
	.st9{fill:url(#SVGID_00000128475243144909688100000002056330999941787791_);}
	.st10{fill:url(#SVGID_00000024686480041054427290000006114448906196146607_);}
	.st11{fill:url(#SVGID_00000110428543606005676300000000914688907939134594_);}
	.st12{fill:url(#SVGID_00000139992819001726891490000005473705138167748026_);}
	.st13{fill:url(#SVGID_00000160172353083115431460000017299248920469727644_);}
	.st14{fill:url(#SVGID_00000046308875491381102160000005927501564352195493_);}
	.st15{fill:url(#SVGID_00000132083499733225720080000014591040463099476612_);}
	.st16{fill:url(#SVGID_00000090282766211681700760000003990053511802667418_);}
	.st17{fill:url(#SVGID_00000072965233266512150620000015781484921215240096_);}
	.st18{fill:url(#SVGID_00000037661405345994389190000005292492296228058002_);}
	.st19{fill:url(#SVGID_00000052076583339377247230000010692893937720185246_);}
	.st20{fill:url(#SVGID_00000172406784250102185510000014472467201791934643_);}
	.st21{fill:url(#SVGID_00000173866641291488308630000015457854697064483254_);}
	.st22{fill:url(#SVGID_00000014600807458197543380000014322804398260310658_);}
	.st23{fill:url(#SVGID_00000002354298467499054390000015580287026000749997_);}
	.st24{fill:url(#SVGID_00000115505699154987494380000005917123591995411390_);}
	.st25{fill:url(#SVGID_00000000934646602704261800000013313138337243162276_);}
	.st26{fill:url(#SVGID_00000158729036424631857910000009957273136075486113_);}
	.st27{fill:url(#SVGID_00000170248878528567617350000013195543255277831572_);}
	.st28{fill:url(#SVGID_00000085245348404063674120000002745920259658752913_);}
</style>
<g>
	<linearGradient id="SVGID_1_" gradientUnits="userSpaceOnUse" x1="34.3355" y1="201.8268" x2="368.2486" y2="201.8268">
		<stop  offset="0" style="stop-color:#E6007E"/>
		<stop  offset="0.131" style="stop-color:#E4007F"/>
		<stop  offset="0.2667" style="stop-color:#DD1783"/>
		<stop  offset="0.4047" style="stop-color:#D12E89"/>
		<stop  offset="0.5443" style="stop-color:#C04291"/>
		<stop  offset="0.6852" style="stop-color:#A6569D"/>
		<stop  offset="0.8271" style="stop-color:#8165A9"/>
		<stop  offset="0.9672" style="stop-color:#3E6FB6"/>
		<stop  offset="1" style="stop-color:#1D71B8"/>
	</linearGradient>
	<rect x="36.68" y="183.05" class="st0" width="5.67" height="37.55"/>
	
		<linearGradient id="SVGID_00000116914757811813854000000006706605579436597910_" gradientUnits="userSpaceOnUse" x1="34.3355" y1="206.3376" x2="368.2486" y2="206.3376">
		<stop  offset="0" style="stop-color:#E6007E"/>
		<stop  offset="0.131" style="stop-color:#E4007F"/>
		<stop  offset="0.2667" style="stop-color:#DD1783"/>
		<stop  offset="0.4047" style="stop-color:#D12E89"/>
		<stop  offset="0.5443" style="stop-color:#C04291"/>
		<stop  offset="0.6852" style="stop-color:#A6569D"/>
		<stop  offset="0.8271" style="stop-color:#8165A9"/>
		<stop  offset="0.9672" style="stop-color:#3E6FB6"/>
		<stop  offset="1" style="stop-color:#1D71B8"/>
	</linearGradient>
	<path style="fill:url(#SVGID_00000116914757811813854000000006706605579436597910_);" d="M69.12,193.27
		c-1.44-0.8-3.12-1.2-5.04-1.2c-2.11,0-3.87,0.45-5.25,1.36c-1.39,0.9-2.41,2.1-3.05,3.59h-0.35v-4.58h-5.26v28.17h5.48v-16.72
		c0-1.49,0.28-2.76,0.85-3.82c0.57-1.06,1.35-1.86,2.33-2.41c0.98-0.55,2.11-0.83,3.38-0.83c1.86,0,3.32,0.58,4.38,1.73
		c1.06,1.16,1.59,2.75,1.59,4.79v17.25h5.48v-17.91c0-2.32-0.4-4.27-1.19-5.85C71.68,195.26,70.56,194.07,69.12,193.27z"/>
	
		<linearGradient id="SVGID_00000045577729510798862670000017941559662515010225_" gradientUnits="userSpaceOnUse" x1="34.3355" y1="206.6216" x2="368.2486" y2="206.6216">
		<stop  offset="0" style="stop-color:#E6007E"/>
		<stop  offset="0.131" style="stop-color:#E4007F"/>
		<stop  offset="0.2667" style="stop-color:#DD1783"/>
		<stop  offset="0.4047" style="stop-color:#D12E89"/>
		<stop  offset="0.5443" style="stop-color:#C04291"/>
		<stop  offset="0.6852" style="stop-color:#A6569D"/>
		<stop  offset="0.8271" style="stop-color:#8165A9"/>
		<stop  offset="0.9672" style="stop-color:#3E6FB6"/>
		<stop  offset="1" style="stop-color:#1D71B8"/>
	</linearGradient>
	<path style="fill:url(#SVGID_00000045577729510798862670000017941559662515010225_);" d="M85.83,219.31
		c1.96,1.24,4.31,1.86,7.03,1.86c2.22,0,4.17-0.41,5.82-1.23c1.66-0.82,2.98-1.94,3.97-3.37c0.99-1.43,1.58-3.06,1.78-4.88h-5.34
		c-0.23,1.02-0.64,1.88-1.22,2.6c-0.58,0.72-1.3,1.27-2.15,1.66c-0.85,0.38-1.79,0.58-2.83,0.58c-1.55,0-2.9-0.41-4.04-1.23
		c-1.14-0.82-2.03-1.97-2.65-3.47c-0.62-1.49-0.94-3.26-0.94-5.32c0-2.01,0.32-3.74,0.95-5.22c0.64-1.47,1.53-2.61,2.67-3.41
		c1.14-0.8,2.48-1.2,4.01-1.2c1.75,0,3.14,0.48,4.19,1.43c1.05,0.95,1.71,2.09,2.01,3.41h5.34c-0.2-1.9-0.81-3.55-1.84-4.97
		c-1.03-1.42-2.39-2.52-4.06-3.31c-1.67-0.79-3.58-1.18-5.72-1.18c-2.65,0-4.96,0.62-6.91,1.85c-1.96,1.24-3.47,2.95-4.55,5.14
		c-1.08,2.19-1.61,4.72-1.61,7.58c0,2.82,0.53,5.33,1.58,7.52C82.36,216.36,83.87,218.07,85.83,219.31z"/>
	
		<linearGradient id="SVGID_00000069378707931613618060000000439702426491741839_" gradientUnits="userSpaceOnUse" x1="34.3355" y1="201.8268" x2="368.2486" y2="201.8268">
		<stop  offset="0" style="stop-color:#E6007E"/>
		<stop  offset="0.131" style="stop-color:#E4007F"/>
		<stop  offset="0.2667" style="stop-color:#DD1783"/>
		<stop  offset="0.4047" style="stop-color:#D12E89"/>
		<stop  offset="0.5443" style="stop-color:#C04291"/>
		<stop  offset="0.6852" style="stop-color:#A6569D"/>
		<stop  offset="0.8271" style="stop-color:#8165A9"/>
		<stop  offset="0.9672" style="stop-color:#3E6FB6"/>
		<stop  offset="1" style="stop-color:#1D71B8"/>
	</linearGradient>
	
		<rect x="110.32" y="183.05" style="fill:url(#SVGID_00000069378707931613618060000000439702426491741839_);" width="5.48" height="37.55"/>
	
		<linearGradient id="SVGID_00000139254801940904463210000017184758319733884569_" gradientUnits="userSpaceOnUse" x1="34.3355" y1="206.704" x2="368.2486" y2="206.704">
		<stop  offset="0" style="stop-color:#E6007E"/>
		<stop  offset="0.131" style="stop-color:#E4007F"/>
		<stop  offset="0.2667" style="stop-color:#DD1783"/>
		<stop  offset="0.4047" style="stop-color:#D12E89"/>
		<stop  offset="0.5443" style="stop-color:#C04291"/>
		<stop  offset="0.6852" style="stop-color:#A6569D"/>
		<stop  offset="0.8271" style="stop-color:#8165A9"/>
		<stop  offset="0.9672" style="stop-color:#3E6FB6"/>
		<stop  offset="1" style="stop-color:#1D71B8"/>
	</linearGradient>
	<path style="fill:url(#SVGID_00000139254801940904463210000017184758319733884569_);" d="M141.01,208.92c0.01,1.6-0.32,2.92-1,3.96
		c-0.68,1.04-1.53,1.82-2.55,2.33c-1.02,0.51-2.04,0.77-3.07,0.77c-1.7,0-3.08-0.57-4.14-1.7c-1.06-1.14-1.59-2.67-1.59-4.58v-17.26
		h-5.48v17.92c0,2.32,0.39,4.27,1.18,5.85c0.79,1.58,1.88,2.77,3.26,3.57c1.39,0.8,2.99,1.2,4.79,1.2c2.11,0,3.88-0.5,5.31-1.49
		c1.42-1,2.46-2.25,3.11-3.75h0.29v4.88h5.39v-28.17h-5.5V208.92z"/>
	
		<linearGradient id="SVGID_00000101805992149598841110000011978046598794262420_" gradientUnits="userSpaceOnUse" x1="34.3355" y1="206.6216" x2="368.2486" y2="206.6216">
		<stop  offset="0" style="stop-color:#E6007E"/>
		<stop  offset="0.131" style="stop-color:#E4007F"/>
		<stop  offset="0.2667" style="stop-color:#DD1783"/>
		<stop  offset="0.4047" style="stop-color:#D12E89"/>
		<stop  offset="0.5443" style="stop-color:#C04291"/>
		<stop  offset="0.6852" style="stop-color:#A6569D"/>
		<stop  offset="0.8271" style="stop-color:#8165A9"/>
		<stop  offset="0.9672" style="stop-color:#3E6FB6"/>
		<stop  offset="1" style="stop-color:#1D71B8"/>
	</linearGradient>
	<path style="fill:url(#SVGID_00000101805992149598841110000011978046598794262420_);" d="M167.82,204.83l-4.47-1.03
		c-1.55-0.37-2.68-0.84-3.37-1.41c-0.7-0.57-1.04-1.33-1.04-2.27c0-1.09,0.52-1.98,1.56-2.67c1.04-0.69,2.33-1.04,3.89-1.04
		c1.14,0,2.08,0.18,2.84,0.55c0.76,0.37,1.36,0.84,1.81,1.41c0.45,0.58,0.77,1.18,0.98,1.82l4.97-0.88
		c-0.56-2.2-1.72-3.96-3.47-5.27c-1.75-1.31-4.14-1.97-7.19-1.97c-2.11,0-3.99,0.35-5.63,1.05c-1.64,0.7-2.92,1.68-3.85,2.92
		c-0.93,1.25-1.39,2.7-1.39,4.36c0,2.01,0.63,3.66,1.88,4.97c1.25,1.31,3.19,2.26,5.82,2.86l4.77,1.05c1.34,0.31,2.34,0.76,3,1.36
		c0.65,0.6,0.98,1.34,0.98,2.22c0,1.09-0.54,2.01-1.61,2.76c-1.08,0.75-2.51,1.13-4.31,1.13c-1.65,0-2.99-0.35-4.02-1.05
		c-1.03-0.7-1.71-1.75-2.04-3.13l-5.3,0.81c0.45,2.49,1.67,4.42,3.67,5.77c1.99,1.35,4.57,2.03,7.72,2.03
		c2.27,0,4.28-0.37,6.01-1.12c1.73-0.75,3.08-1.78,4.05-3.09c0.97-1.31,1.46-2.81,1.46-4.5c0-1.99-0.64-3.61-1.91-4.86
		C172.34,206.36,170.41,205.43,167.82,204.83z"/>
	
		<linearGradient id="SVGID_00000016777194395991678940000001304080871690158005_" gradientUnits="userSpaceOnUse" x1="34.3355" y1="184.8195" x2="368.2486" y2="184.8195">
		<stop  offset="0" style="stop-color:#E6007E"/>
		<stop  offset="0.131" style="stop-color:#E4007F"/>
		<stop  offset="0.2667" style="stop-color:#DD1783"/>
		<stop  offset="0.4047" style="stop-color:#D12E89"/>
		<stop  offset="0.5443" style="stop-color:#C04291"/>
		<stop  offset="0.6852" style="stop-color:#A6569D"/>
		<stop  offset="0.8271" style="stop-color:#8165A9"/>
		<stop  offset="0.9672" style="stop-color:#3E6FB6"/>
		<stop  offset="1" style="stop-color:#1D71B8"/>
	</linearGradient>
	<path style="fill:url(#SVGID_00000016777194395991678940000001304080871690158005_);" d="M186.75,182.51
		c-0.68-0.64-1.49-0.96-2.45-0.96c-0.95,0-1.77,0.32-2.45,0.96c-0.68,0.64-1.02,1.42-1.02,2.32c0,0.89,0.34,1.66,1.02,2.3
		c0.68,0.64,1.49,0.96,2.45,0.96c0.95,0,1.77-0.32,2.45-0.96c0.68-0.64,1.02-1.41,1.02-2.32
		C187.77,183.92,187.43,183.15,186.75,182.51z"/>
	
		<linearGradient id="SVGID_00000108274328348966922720000008349130657940246944_" gradientUnits="userSpaceOnUse" x1="34.3355" y1="206.5208" x2="368.2486" y2="206.5208">
		<stop  offset="0" style="stop-color:#E6007E"/>
		<stop  offset="0.131" style="stop-color:#E4007F"/>
		<stop  offset="0.2667" style="stop-color:#DD1783"/>
		<stop  offset="0.4047" style="stop-color:#D12E89"/>
		<stop  offset="0.5443" style="stop-color:#C04291"/>
		<stop  offset="0.6852" style="stop-color:#A6569D"/>
		<stop  offset="0.8271" style="stop-color:#8165A9"/>
		<stop  offset="0.9672" style="stop-color:#3E6FB6"/>
		<stop  offset="1" style="stop-color:#1D71B8"/>
	</linearGradient>
	
		<rect x="181.53" y="192.44" style="fill:url(#SVGID_00000108274328348966922720000008349130657940246944_);" width="5.48" height="28.17"/>
	
		<linearGradient id="SVGID_00000178198548853745462950000017217776111229846702_" gradientUnits="userSpaceOnUse" x1="34.3355" y1="206.6216" x2="368.2486" y2="206.6216">
		<stop  offset="0" style="stop-color:#E6007E"/>
		<stop  offset="0.131" style="stop-color:#E4007F"/>
		<stop  offset="0.2667" style="stop-color:#DD1783"/>
		<stop  offset="0.4047" style="stop-color:#D12E89"/>
		<stop  offset="0.5443" style="stop-color:#C04291"/>
		<stop  offset="0.6852" style="stop-color:#A6569D"/>
		<stop  offset="0.8271" style="stop-color:#8165A9"/>
		<stop  offset="0.9672" style="stop-color:#3E6FB6"/>
		<stop  offset="1" style="stop-color:#1D71B8"/>
	</linearGradient>
	<path style="fill:url(#SVGID_00000178198548853745462950000017217776111229846702_);" d="M217.75,214.28
		c1.09-2.18,1.63-4.72,1.63-7.63c0-2.92-0.54-5.48-1.63-7.66c-1.09-2.19-2.62-3.89-4.58-5.1c-1.97-1.21-4.27-1.82-6.91-1.82
		c-2.64,0-4.95,0.61-6.91,1.82c-1.97,1.21-3.5,2.91-4.58,5.1c-1.09,2.19-1.63,4.74-1.63,7.66c0,2.91,0.54,5.45,1.63,7.63
		c1.09,2.18,2.62,3.87,4.58,5.08c1.97,1.21,4.27,1.82,6.91,1.82c2.64,0,4.94-0.61,6.91-1.82S216.66,216.45,217.75,214.28z
		 M210.52,215.21c-1.13,0.9-2.54,1.36-4.25,1.36c-1.72,0-3.15-0.45-4.28-1.36c-1.13-0.9-1.97-2.11-2.51-3.61
		c-0.54-1.5-0.82-3.16-0.82-4.97c0-1.8,0.27-3.45,0.82-4.96c0.54-1.51,1.38-2.72,2.51-3.64c1.13-0.92,2.56-1.37,4.28-1.37
		c1.71,0,3.13,0.46,4.25,1.37c1.12,0.92,1.96,2.13,2.5,3.64c0.54,1.51,0.82,3.16,0.82,4.96c0,1.81-0.27,3.47-0.82,4.97
		C212.48,213.1,211.65,214.31,210.52,215.21z"/>
	
		<linearGradient id="SVGID_00000143609265767565988810000015138166139045060742_" gradientUnits="userSpaceOnUse" x1="34.3355" y1="206.3376" x2="368.2486" y2="206.3376">
		<stop  offset="0" style="stop-color:#E6007E"/>
		<stop  offset="0.131" style="stop-color:#E4007F"/>
		<stop  offset="0.2667" style="stop-color:#DD1783"/>
		<stop  offset="0.4047" style="stop-color:#D12E89"/>
		<stop  offset="0.5443" style="stop-color:#C04291"/>
		<stop  offset="0.6852" style="stop-color:#A6569D"/>
		<stop  offset="0.8271" style="stop-color:#8165A9"/>
		<stop  offset="0.9672" style="stop-color:#3E6FB6"/>
		<stop  offset="1" style="stop-color:#1D71B8"/>
	</linearGradient>
	<path style="fill:url(#SVGID_00000143609265767565988810000015138166139045060742_);" d="M243.51,203.35v17.25h5.48v-17.91
		c0-2.32-0.4-4.27-1.19-5.85c-0.79-1.58-1.91-2.77-3.36-3.57c-1.44-0.8-3.12-1.2-5.04-1.2c-2.11,0-3.86,0.45-5.25,1.36
		c-1.39,0.9-2.41,2.1-3.05,3.59h-0.35v-4.58h-5.26v28.17h5.48v-16.72c0-1.49,0.28-2.76,0.85-3.82c0.57-1.06,1.35-1.86,2.33-2.41
		c0.98-0.55,2.11-0.83,3.38-0.83c1.86,0,3.32,0.58,4.38,1.73C242.98,199.71,243.51,201.31,243.51,203.35z"/>
	
		<linearGradient id="SVGID_00000124879193853977679810000000286506628565730709_" gradientUnits="userSpaceOnUse" x1="34.3355" y1="253.4622" x2="368.2486" y2="253.4622">
		<stop  offset="0" style="stop-color:#E6007E"/>
		<stop  offset="0.131" style="stop-color:#E4007F"/>
		<stop  offset="0.2667" style="stop-color:#DD1783"/>
		<stop  offset="0.4047" style="stop-color:#D12E89"/>
		<stop  offset="0.5443" style="stop-color:#C04291"/>
		<stop  offset="0.6852" style="stop-color:#A6569D"/>
		<stop  offset="0.8271" style="stop-color:#8165A9"/>
		<stop  offset="0.9672" style="stop-color:#3E6FB6"/>
		<stop  offset="1" style="stop-color:#1D71B8"/>
	</linearGradient>
	
		<rect x="36.68" y="234.69" style="fill:url(#SVGID_00000124879193853977679810000000286506628565730709_);" width="5.67" height="37.55"/>
	
		<linearGradient id="SVGID_00000083048676402900069710000015787557610692482959_" gradientUnits="userSpaceOnUse" x1="34.3355" y1="257.973" x2="368.2486" y2="257.973">
		<stop  offset="0" style="stop-color:#E6007E"/>
		<stop  offset="0.131" style="stop-color:#E4007F"/>
		<stop  offset="0.2667" style="stop-color:#DD1783"/>
		<stop  offset="0.4047" style="stop-color:#D12E89"/>
		<stop  offset="0.5443" style="stop-color:#C04291"/>
		<stop  offset="0.6852" style="stop-color:#A6569D"/>
		<stop  offset="0.8271" style="stop-color:#8165A9"/>
		<stop  offset="0.9672" style="stop-color:#3E6FB6"/>
		<stop  offset="1" style="stop-color:#1D71B8"/>
	</linearGradient>
	<path style="fill:url(#SVGID_00000083048676402900069710000015787557610692482959_);" d="M69.12,244.91
		c-1.44-0.8-3.12-1.2-5.04-1.2c-2.11,0-3.87,0.45-5.25,1.36c-1.39,0.9-2.41,2.1-3.05,3.59h-0.35v-4.58h-5.26v28.17h5.48v-16.72
		c0-1.49,0.28-2.76,0.85-3.82c0.57-1.06,1.35-1.86,2.33-2.41c0.98-0.55,2.11-0.83,3.38-0.83c1.86,0,3.32,0.58,4.38,1.73
		c1.06,1.16,1.59,2.75,1.59,4.79v17.25h5.48v-17.91c0-2.32-0.4-4.27-1.19-5.85C71.68,246.9,70.56,245.71,69.12,244.91z"/>
	
		<linearGradient id="SVGID_00000032632732611759756490000017950327994802361020_" gradientUnits="userSpaceOnUse" x1="34.3355" y1="254.9669" x2="368.2486" y2="254.9669">
		<stop  offset="0" style="stop-color:#E6007E"/>
		<stop  offset="0.131" style="stop-color:#E4007F"/>
		<stop  offset="0.2667" style="stop-color:#DD1783"/>
		<stop  offset="0.4047" style="stop-color:#D12E89"/>
		<stop  offset="0.5443" style="stop-color:#C04291"/>
		<stop  offset="0.6852" style="stop-color:#A6569D"/>
		<stop  offset="0.8271" style="stop-color:#8165A9"/>
		<stop  offset="0.9672" style="stop-color:#3E6FB6"/>
		<stop  offset="1" style="stop-color:#1D71B8"/>
	</linearGradient>
	<path style="fill:url(#SVGID_00000032632732611759756490000017950327994802361020_);" d="M92.9,267.64
		c-0.33,0.06-0.71,0.09-1.16,0.09c-0.6,0-1.15-0.09-1.66-0.28c-0.51-0.19-0.92-0.55-1.24-1.08c-0.32-0.53-0.48-1.33-0.48-2.39
		v-15.49h5.78v-4.4h-5.78v-6.75h-5.48v6.75h-4.13v4.4h4.13v16.63c0,1.7,0.38,3.11,1.16,4.24c0.77,1.12,1.78,1.95,3.03,2.49
		c1.25,0.54,2.59,0.8,4.03,0.77c0.88-0.01,1.61-0.08,2.2-0.21c0.59-0.13,1.04-0.25,1.36-0.38l-0.99-4.53
		C93.48,267.53,93.23,267.58,92.9,267.64z"/>
	
		<linearGradient id="SVGID_00000036210647989934757600000017698700889957753511_" gradientUnits="userSpaceOnUse" x1="34.3355" y1="258.257" x2="368.2486" y2="258.257">
		<stop  offset="0" style="stop-color:#E6007E"/>
		<stop  offset="0.131" style="stop-color:#E4007F"/>
		<stop  offset="0.2667" style="stop-color:#DD1783"/>
		<stop  offset="0.4047" style="stop-color:#D12E89"/>
		<stop  offset="0.5443" style="stop-color:#C04291"/>
		<stop  offset="0.6852" style="stop-color:#A6569D"/>
		<stop  offset="0.8271" style="stop-color:#8165A9"/>
		<stop  offset="0.9672" style="stop-color:#3E6FB6"/>
		<stop  offset="1" style="stop-color:#1D71B8"/>
	</linearGradient>
	<path style="fill:url(#SVGID_00000036210647989934757600000017698700889957753511_);" d="M120.29,246.97
		c-1.19-1.12-2.52-1.95-4.02-2.48c-1.49-0.53-3.03-0.79-4.62-0.79c-2.62,0-4.9,0.62-6.85,1.85c-1.95,1.24-3.47,2.95-4.55,5.15
		c-1.08,2.2-1.62,4.74-1.62,7.63c0,2.92,0.54,5.47,1.62,7.64c1.08,2.17,2.62,3.85,4.62,5.04c2,1.19,4.38,1.79,7.16,1.79
		c2.05,0,3.88-0.31,5.49-0.94c1.61-0.63,2.95-1.52,4.02-2.66c1.07-1.14,1.81-2.48,2.23-4.01l-5.19-0.93
		c-0.33,0.88-0.81,1.62-1.43,2.22c-0.62,0.6-1.36,1.05-2.22,1.35c-0.86,0.3-1.8,0.45-2.84,0.45c-1.6,0-3-0.34-4.2-1.04
		c-1.2-0.69-2.13-1.7-2.8-3.02c-0.62-1.22-0.92-2.71-0.96-4.42h19.99v-1.94c0-2.56-0.34-4.73-1.03-6.52
		C122.41,249.55,121.48,248.1,120.29,246.97z M104.16,255.7c0.07-1.21,0.33-2.35,0.87-3.4c0.62-1.2,1.5-2.18,2.64-2.94
		c1.14-0.75,2.48-1.13,4.03-1.13c1.42,0,2.66,0.32,3.71,0.97c1.06,0.65,1.88,1.53,2.47,2.65c0.59,1.12,0.88,2.4,0.88,3.84H104.16z"
		/>
	
		<linearGradient id="SVGID_00000133518709210124513030000005459415712650199427_" gradientUnits="userSpaceOnUse" x1="34.3355" y1="257.9456" x2="368.2486" y2="257.9456">
		<stop  offset="0" style="stop-color:#E6007E"/>
		<stop  offset="0.131" style="stop-color:#E4007F"/>
		<stop  offset="0.2667" style="stop-color:#DD1783"/>
		<stop  offset="0.4047" style="stop-color:#D12E89"/>
		<stop  offset="0.5443" style="stop-color:#C04291"/>
		<stop  offset="0.6852" style="stop-color:#A6569D"/>
		<stop  offset="0.8271" style="stop-color:#8165A9"/>
		<stop  offset="0.9672" style="stop-color:#3E6FB6"/>
		<stop  offset="1" style="stop-color:#1D71B8"/>
	</linearGradient>
	<path style="fill:url(#SVGID_00000133518709210124513030000005459415712650199427_);" d="M142.97,243.65
		c-1.65,0-3.13,0.44-4.43,1.31c-1.3,0.87-2.21,2.07-2.72,3.58h-0.29v-4.47h-5.3v28.17h5.48v-17.2c0-1.22,0.29-2.31,0.88-3.27
		c0.59-0.96,1.38-1.71,2.39-2.26c1.01-0.54,2.16-0.82,3.46-0.82c0.56,0,1.12,0.04,1.69,0.12c0.56,0.08,0.95,0.15,1.17,0.21v-5.24
		c-0.27-0.04-0.64-0.07-1.11-0.09C143.72,243.66,143.32,243.65,142.97,243.65z"/>
	
		<linearGradient id="SVGID_00000172400716012255608240000003911982900356444350_" gradientUnits="userSpaceOnUse" x1="34.3355" y1="257.973" x2="368.2486" y2="257.973">
		<stop  offset="0" style="stop-color:#E6007E"/>
		<stop  offset="0.131" style="stop-color:#E4007F"/>
		<stop  offset="0.2667" style="stop-color:#DD1783"/>
		<stop  offset="0.4047" style="stop-color:#D12E89"/>
		<stop  offset="0.5443" style="stop-color:#C04291"/>
		<stop  offset="0.6852" style="stop-color:#A6569D"/>
		<stop  offset="0.8271" style="stop-color:#8165A9"/>
		<stop  offset="0.9672" style="stop-color:#3E6FB6"/>
		<stop  offset="1" style="stop-color:#1D71B8"/>
	</linearGradient>
	<path style="fill:url(#SVGID_00000172400716012255608240000003911982900356444350_);" d="M169.03,244.91
		c-1.44-0.8-3.12-1.2-5.04-1.2c-2.11,0-3.87,0.45-5.25,1.36c-1.39,0.9-2.41,2.1-3.05,3.59h-0.35v-4.58h-5.26v28.17h5.48v-16.72
		c0-1.49,0.28-2.76,0.85-3.82c0.57-1.06,1.35-1.86,2.33-2.41c0.98-0.55,2.11-0.83,3.38-0.83c1.86,0,3.32,0.58,4.38,1.73
		c1.06,1.16,1.6,2.75,1.6,4.79v17.25h5.48v-17.91c0-2.32-0.4-4.27-1.19-5.85C171.59,246.9,170.47,245.71,169.03,244.91z"/>
	
		<linearGradient id="SVGID_00000156551279400707402200000015583757474699327880_" gradientUnits="userSpaceOnUse" x1="34.3355" y1="258.2845" x2="368.2486" y2="258.2845">
		<stop  offset="0" style="stop-color:#E6007E"/>
		<stop  offset="0.131" style="stop-color:#E4007F"/>
		<stop  offset="0.2667" style="stop-color:#DD1783"/>
		<stop  offset="0.4047" style="stop-color:#D12E89"/>
		<stop  offset="0.5443" style="stop-color:#C04291"/>
		<stop  offset="0.6852" style="stop-color:#A6569D"/>
		<stop  offset="0.8271" style="stop-color:#8165A9"/>
		<stop  offset="0.9672" style="stop-color:#3E6FB6"/>
		<stop  offset="1" style="stop-color:#1D71B8"/>
	</linearGradient>
	<path style="fill:url(#SVGID_00000156551279400707402200000015583757474699327880_);" d="M199.22,245.54
		c-1.11-0.7-2.29-1.18-3.56-1.44c-1.26-0.26-2.46-0.39-3.58-0.39c-1.7,0-3.32,0.24-4.86,0.73c-1.54,0.48-2.9,1.25-4.08,2.31
		c-1.18,1.06-2.08,2.44-2.69,4.15l5.15,1.17c0.4-0.99,1.13-1.89,2.19-2.71c1.06-0.81,2.51-1.22,4.36-1.22
		c1.77,0,3.11,0.44,4.01,1.32c0.9,0.88,1.35,2.12,1.35,3.72v0.13c0,0.66-0.24,1.14-0.71,1.43c-0.48,0.29-1.24,0.5-2.29,0.63
		c-1.05,0.13-2.42,0.29-4.11,0.49c-1.33,0.16-2.64,0.39-3.92,0.7c-1.28,0.31-2.45,0.76-3.48,1.36c-1.04,0.6-1.86,1.41-2.48,2.44
		c-0.61,1.03-0.92,2.34-0.92,3.92c0,1.85,0.42,3.41,1.26,4.68c0.84,1.27,1.98,2.24,3.42,2.91c1.44,0.67,3.06,1,4.84,1
		c1.55,0,2.89-0.23,4-0.68c1.11-0.45,2.02-1.02,2.73-1.71c0.71-0.68,1.24-1.38,1.6-2.09h0.22v3.85h5.35v-18.7
		c0-2.05-0.36-3.73-1.06-5.01C201.23,247.23,200.33,246.24,199.22,245.54z M197.52,262.08c0,1.11-0.28,2.15-0.85,3.13
		c-0.57,0.97-1.39,1.76-2.48,2.36c-1.08,0.6-2.38,0.9-3.9,0.9c-1.55,0-2.83-0.35-3.83-1.04c-1-0.69-1.5-1.71-1.5-3.07
		c0-0.98,0.26-1.76,0.78-2.36c0.52-0.59,1.22-1.05,2.09-1.37c0.87-0.32,1.84-0.54,2.91-0.68c0.45-0.06,1.01-0.14,1.69-0.23
		c0.67-0.09,1.36-0.2,2.07-0.31c0.71-0.12,1.34-0.26,1.9-0.42c0.56-0.16,0.93-0.35,1.13-0.54V262.08z"/>
	
		<linearGradient id="SVGID_00000077308056601229303710000012786885384118742426_" gradientUnits="userSpaceOnUse" x1="34.3355" y1="254.9669" x2="368.2486" y2="254.9669">
		<stop  offset="0" style="stop-color:#E6007E"/>
		<stop  offset="0.131" style="stop-color:#E4007F"/>
		<stop  offset="0.2667" style="stop-color:#DD1783"/>
		<stop  offset="0.4047" style="stop-color:#D12E89"/>
		<stop  offset="0.5443" style="stop-color:#C04291"/>
		<stop  offset="0.6852" style="stop-color:#A6569D"/>
		<stop  offset="0.8271" style="stop-color:#8165A9"/>
		<stop  offset="0.9672" style="stop-color:#3E6FB6"/>
		<stop  offset="1" style="stop-color:#1D71B8"/>
	</linearGradient>
	<path style="fill:url(#SVGID_00000077308056601229303710000012786885384118742426_);" d="M222.21,267.64
		c-0.33,0.06-0.71,0.09-1.16,0.09c-0.6,0-1.15-0.09-1.66-0.28c-0.51-0.19-0.92-0.55-1.24-1.08c-0.32-0.53-0.48-1.33-0.48-2.39
		v-15.49h5.78v-4.4h-5.78v-6.75h-5.48v6.75h-4.13v4.4h4.13v16.63c0,1.7,0.39,3.11,1.16,4.24c0.77,1.12,1.78,1.95,3.03,2.49
		c1.25,0.54,2.59,0.8,4.03,0.77c0.88-0.01,1.61-0.08,2.2-0.21c0.59-0.13,1.04-0.25,1.36-0.38l-0.99-4.53
		C222.79,267.53,222.53,267.58,222.21,267.64z"/>
	
		<linearGradient id="SVGID_00000159468856913654753390000001446686440888656827_" gradientUnits="userSpaceOnUse" x1="34.3355" y1="236.4548" x2="368.2486" y2="236.4548">
		<stop  offset="0" style="stop-color:#E6007E"/>
		<stop  offset="0.131" style="stop-color:#E4007F"/>
		<stop  offset="0.2667" style="stop-color:#DD1783"/>
		<stop  offset="0.4047" style="stop-color:#D12E89"/>
		<stop  offset="0.5443" style="stop-color:#C04291"/>
		<stop  offset="0.6852" style="stop-color:#A6569D"/>
		<stop  offset="0.8271" style="stop-color:#8165A9"/>
		<stop  offset="0.9672" style="stop-color:#3E6FB6"/>
		<stop  offset="1" style="stop-color:#1D71B8"/>
	</linearGradient>
	<path style="fill:url(#SVGID_00000159468856913654753390000001446686440888656827_);" d="M232.27,233.18
		c-0.95,0-1.77,0.32-2.45,0.96c-0.68,0.64-1.02,1.41-1.02,2.32c0,0.89,0.34,1.66,1.02,2.3c0.68,0.64,1.49,0.96,2.45,0.96
		s1.77-0.32,2.45-0.96c0.68-0.64,1.02-1.41,1.02-2.32c0-0.89-0.34-1.66-1.02-2.3C234.04,233.5,233.22,233.18,232.27,233.18z"/>
	
		<linearGradient id="SVGID_00000091715884852527967380000008961436104112911498_" gradientUnits="userSpaceOnUse" x1="34.3355" y1="258.1562" x2="368.2486" y2="258.1562">
		<stop  offset="0" style="stop-color:#E6007E"/>
		<stop  offset="0.131" style="stop-color:#E4007F"/>
		<stop  offset="0.2667" style="stop-color:#DD1783"/>
		<stop  offset="0.4047" style="stop-color:#D12E89"/>
		<stop  offset="0.5443" style="stop-color:#C04291"/>
		<stop  offset="0.6852" style="stop-color:#A6569D"/>
		<stop  offset="0.8271" style="stop-color:#8165A9"/>
		<stop  offset="0.9672" style="stop-color:#3E6FB6"/>
		<stop  offset="1" style="stop-color:#1D71B8"/>
	</linearGradient>
	
		<rect x="229.5" y="244.07" style="fill:url(#SVGID_00000091715884852527967380000008961436104112911498_);" width="5.48" height="28.17"/>
	
		<linearGradient id="SVGID_00000178896425243426993600000004639545286594791609_" gradientUnits="userSpaceOnUse" x1="34.3355" y1="258.257" x2="368.2486" y2="258.257">
		<stop  offset="0" style="stop-color:#E6007E"/>
		<stop  offset="0.131" style="stop-color:#E4007F"/>
		<stop  offset="0.2667" style="stop-color:#DD1783"/>
		<stop  offset="0.4047" style="stop-color:#D12E89"/>
		<stop  offset="0.5443" style="stop-color:#C04291"/>
		<stop  offset="0.6852" style="stop-color:#A6569D"/>
		<stop  offset="0.8271" style="stop-color:#8165A9"/>
		<stop  offset="0.9672" style="stop-color:#3E6FB6"/>
		<stop  offset="1" style="stop-color:#1D71B8"/>
	</linearGradient>
	<path style="fill:url(#SVGID_00000178896425243426993600000004639545286594791609_);" d="M261.13,245.52
		c-1.97-1.21-4.27-1.82-6.91-1.82c-2.64,0-4.95,0.61-6.91,1.82c-1.97,1.21-3.5,2.91-4.58,5.1c-1.09,2.19-1.63,4.74-1.63,7.66
		c0,2.91,0.54,5.45,1.63,7.63c1.09,2.18,2.61,3.87,4.58,5.08c1.97,1.21,4.27,1.82,6.91,1.82c2.64,0,4.94-0.61,6.91-1.82
		c1.97-1.21,3.5-2.9,4.58-5.08c1.09-2.18,1.63-4.72,1.63-7.63c0-2.92-0.54-5.48-1.63-7.66C264.63,248.43,263.1,246.73,261.13,245.52
		z M261,263.24c-0.54,1.5-1.38,2.71-2.5,3.61c-1.12,0.9-2.54,1.36-4.25,1.36c-1.72,0-3.15-0.45-4.28-1.36
		c-1.13-0.9-1.97-2.11-2.51-3.61c-0.54-1.5-0.82-3.16-0.82-4.97c0-1.8,0.27-3.45,0.82-4.96c0.54-1.51,1.38-2.72,2.51-3.64
		c1.13-0.92,2.56-1.37,4.28-1.37c1.71,0,3.13,0.46,4.25,1.37c1.13,0.92,1.96,2.13,2.5,3.64c0.54,1.51,0.82,3.16,0.82,4.96
		C261.81,260.08,261.54,261.73,261,263.24z"/>
	
		<linearGradient id="SVGID_00000067914962529476473200000003324255709528364213_" gradientUnits="userSpaceOnUse" x1="34.3355" y1="257.973" x2="368.2486" y2="257.973">
		<stop  offset="0" style="stop-color:#E6007E"/>
		<stop  offset="0.131" style="stop-color:#E4007F"/>
		<stop  offset="0.2667" style="stop-color:#DD1783"/>
		<stop  offset="0.4047" style="stop-color:#D12E89"/>
		<stop  offset="0.5443" style="stop-color:#C04291"/>
		<stop  offset="0.6852" style="stop-color:#A6569D"/>
		<stop  offset="0.8271" style="stop-color:#8165A9"/>
		<stop  offset="0.9672" style="stop-color:#3E6FB6"/>
		<stop  offset="1" style="stop-color:#1D71B8"/>
	</linearGradient>
	<path style="fill:url(#SVGID_00000067914962529476473200000003324255709528364213_);" d="M292.41,244.91
		c-1.44-0.8-3.12-1.2-5.04-1.2c-2.11,0-3.87,0.45-5.25,1.36c-1.39,0.9-2.41,2.1-3.05,3.59h-0.35v-4.58h-5.26v28.17h5.48v-16.72
		c0-1.49,0.28-2.76,0.85-3.82c0.57-1.06,1.35-1.86,2.33-2.41c0.98-0.55,2.11-0.83,3.38-0.83c1.86,0,3.32,0.58,4.38,1.73
		c1.06,1.16,1.59,2.75,1.59,4.79v17.25h5.48v-17.91c0-2.32-0.4-4.27-1.19-5.85C294.97,246.9,293.86,245.71,292.41,244.91z"/>
	
		<linearGradient id="SVGID_00000017500583940993152160000006971821541397220031_" gradientUnits="userSpaceOnUse" x1="34.3355" y1="258.2845" x2="368.2486" y2="258.2845">
		<stop  offset="0" style="stop-color:#E6007E"/>
		<stop  offset="0.131" style="stop-color:#E4007F"/>
		<stop  offset="0.2667" style="stop-color:#DD1783"/>
		<stop  offset="0.4047" style="stop-color:#D12E89"/>
		<stop  offset="0.5443" style="stop-color:#C04291"/>
		<stop  offset="0.6852" style="stop-color:#A6569D"/>
		<stop  offset="0.8271" style="stop-color:#8165A9"/>
		<stop  offset="0.9672" style="stop-color:#3E6FB6"/>
		<stop  offset="1" style="stop-color:#1D71B8"/>
	</linearGradient>
	<path style="fill:url(#SVGID_00000017500583940993152160000006971821541397220031_);" d="M322.6,245.54
		c-1.11-0.7-2.29-1.18-3.56-1.44c-1.27-0.26-2.46-0.39-3.58-0.39c-1.7,0-3.32,0.24-4.86,0.73c-1.54,0.48-2.9,1.25-4.08,2.31
		c-1.18,1.06-2.07,2.44-2.69,4.15l5.15,1.17c0.4-0.99,1.13-1.89,2.19-2.71c1.06-0.81,2.51-1.22,4.35-1.22
		c1.77,0,3.11,0.44,4.01,1.32c0.9,0.88,1.35,2.12,1.35,3.72v0.13c0,0.66-0.24,1.14-0.71,1.43c-0.48,0.29-1.24,0.5-2.29,0.63
		c-1.05,0.13-2.42,0.29-4.11,0.49c-1.33,0.16-2.64,0.39-3.92,0.7c-1.28,0.31-2.44,0.76-3.48,1.36c-1.04,0.6-1.86,1.41-2.48,2.44
		c-0.61,1.03-0.92,2.34-0.92,3.92c0,1.85,0.42,3.41,1.26,4.68c0.84,1.27,1.98,2.24,3.42,2.91c1.44,0.67,3.06,1,4.84,1
		c1.55,0,2.88-0.23,4-0.68c1.11-0.45,2.02-1.02,2.73-1.71c0.71-0.68,1.24-1.38,1.6-2.09h0.22v3.85h5.35v-18.7
		c0-2.05-0.35-3.73-1.06-5.01C324.62,247.23,323.71,246.24,322.6,245.54z M320.91,262.08c0,1.11-0.28,2.15-0.85,3.13
		c-0.57,0.97-1.39,1.76-2.48,2.36c-1.08,0.6-2.38,0.9-3.9,0.9c-1.55,0-2.83-0.35-3.83-1.04c-1-0.69-1.5-1.71-1.5-3.07
		c0-0.98,0.26-1.76,0.78-2.36c0.52-0.59,1.22-1.05,2.09-1.37c0.88-0.32,1.84-0.54,2.91-0.68c0.45-0.06,1.01-0.14,1.69-0.23
		c0.67-0.09,1.36-0.2,2.07-0.31c0.71-0.12,1.34-0.26,1.9-0.42c0.56-0.16,0.93-0.35,1.13-0.54V262.08z"/>
	
		<linearGradient id="SVGID_00000000927944949087135960000017094468126716428932_" gradientUnits="userSpaceOnUse" x1="34.3355" y1="253.4622" x2="368.2486" y2="253.4622">
		<stop  offset="0" style="stop-color:#E6007E"/>
		<stop  offset="0.131" style="stop-color:#E4007F"/>
		<stop  offset="0.2667" style="stop-color:#DD1783"/>
		<stop  offset="0.4047" style="stop-color:#D12E89"/>
		<stop  offset="0.5443" style="stop-color:#C04291"/>
		<stop  offset="0.6852" style="stop-color:#A6569D"/>
		<stop  offset="0.8271" style="stop-color:#8165A9"/>
		<stop  offset="0.9672" style="stop-color:#3E6FB6"/>
		<stop  offset="1" style="stop-color:#1D71B8"/>
	</linearGradient>
	
		<rect x="333.69" y="234.69" style="fill:url(#SVGID_00000000927944949087135960000017094468126716428932_);" width="5.48" height="37.55"/>
	
		<linearGradient id="SVGID_00000160875364359716607030000016979033795850433457_" gradientUnits="userSpaceOnUse" x1="34.3355" y1="70.8244" x2="368.2486" y2="70.8244">
		<stop  offset="0" style="stop-color:#E6007E"/>
		<stop  offset="0.131" style="stop-color:#E4007F"/>
		<stop  offset="0.2667" style="stop-color:#DD1783"/>
		<stop  offset="0.4047" style="stop-color:#D12E89"/>
		<stop  offset="0.5443" style="stop-color:#C04291"/>
		<stop  offset="0.6852" style="stop-color:#A6569D"/>
		<stop  offset="0.8271" style="stop-color:#8165A9"/>
		<stop  offset="0.9672" style="stop-color:#3E6FB6"/>
		<stop  offset="1" style="stop-color:#1D71B8"/>
	</linearGradient>
	<path style="fill:url(#SVGID_00000160875364359716607030000016979033795850433457_);" d="M298.5,81.21
		c5.74,0,10.39-4.65,10.39-10.39c0-5.74-4.65-10.39-10.39-10.39s-10.39,4.65-10.39,10.39C288.11,76.56,292.76,81.21,298.5,81.21z"/>
	
		<linearGradient id="SVGID_00000181086159973428462720000006624804144373101214_" gradientUnits="userSpaceOnUse" x1="34.3355" y1="118.1676" x2="368.2486" y2="118.1676">
		<stop  offset="0" style="stop-color:#E6007E"/>
		<stop  offset="0.131" style="stop-color:#E4007F"/>
		<stop  offset="0.2667" style="stop-color:#DD1783"/>
		<stop  offset="0.4047" style="stop-color:#D12E89"/>
		<stop  offset="0.5443" style="stop-color:#C04291"/>
		<stop  offset="0.6852" style="stop-color:#A6569D"/>
		<stop  offset="0.8271" style="stop-color:#8165A9"/>
		<stop  offset="0.9672" style="stop-color:#3E6FB6"/>
		<stop  offset="1" style="stop-color:#1D71B8"/>
	</linearGradient>
	<path style="fill:url(#SVGID_00000181086159973428462720000006624804144373101214_);" d="M340.07,87.09l-1.41-4.45
		c-0.35-1.09-1.49-1.72-2.6-1.4c-10.19,2.92-23.42,4.52-37.57,4.52c-14.15,0-27.38-1.6-37.57-4.52c-1.1-0.32-2.25,0.31-2.6,1.4
		l-1.41,4.45c-0.36,1.14,0.29,2.36,1.45,2.69c7.43,2.14,16.3,3.62,25.9,4.36v59.13c0,1.06,0.86,1.92,1.92,1.92h5.64
		c1.06,0,1.92-0.86,1.92-1.92v-26.11c0-1.06,0.86-1.92,1.92-1.92h5.64c1.06,0,1.92,0.86,1.92,1.92v26.11c0,1.06,0.86,1.92,1.92,1.92
		h5.64c1.06,0,1.92-0.86,1.92-1.92V94.14c9.6-0.74,18.47-2.22,25.9-4.36C339.78,89.44,340.43,88.23,340.07,87.09z"/>
	
		<linearGradient id="SVGID_00000177448259735726230040000000429573647367300245_" gradientUnits="userSpaceOnUse" x1="34.3355" y1="107.8106" x2="368.2486" y2="107.8106">
		<stop  offset="0" style="stop-color:#E6007E"/>
		<stop  offset="0.131" style="stop-color:#E4007F"/>
		<stop  offset="0.2667" style="stop-color:#DD1783"/>
		<stop  offset="0.4047" style="stop-color:#D12E89"/>
		<stop  offset="0.5443" style="stop-color:#C04291"/>
		<stop  offset="0.6852" style="stop-color:#A6569D"/>
		<stop  offset="0.8271" style="stop-color:#8165A9"/>
		<stop  offset="0.9672" style="stop-color:#3E6FB6"/>
		<stop  offset="1" style="stop-color:#1D71B8"/>
	</linearGradient>
	<path style="fill:url(#SVGID_00000177448259735726230040000000429573647367300245_);" d="M298.5,33.37
		c-32.5,0-60.19,20.94-70.31,50.04h-19.17v-0.37l5.88-4.91c4.78-3.99,8.47-7.42,11.07-10.3c2.6-2.88,4.39-5.51,5.4-7.9
		c1-2.38,1.5-4.78,1.5-7.19c0-3.9-1.01-7.31-3.02-10.21c-2.02-2.9-4.87-5.16-8.56-6.76c-3.69-1.6-8.05-2.41-13.08-2.41
		c-4.87,0-9.11,0.86-12.73,2.57c-3.61,1.72-6.41,4.17-8.4,7.36c-1.99,3.19-2.98,6.99-2.98,11.41h16.19c0-1.76,0.33-3.25,0.98-4.47
		c0.65-1.23,1.58-2.16,2.77-2.79c1.2-0.63,2.58-0.95,4.16-0.95c1.57,0,2.96,0.31,4.17,0.94c1.2,0.62,2.15,1.51,2.83,2.65
		c0.69,1.14,1.03,2.52,1.03,4.14c0,1.47-0.3,2.81-0.9,4.02c-0.6,1.21-1.46,2.38-2.58,3.51c-1.11,1.14-2.45,2.35-4,3.63l-23.39,19.35
		c-2.8-4.87-6.54-8.76-11.24-11.67c-5.2-3.21-11.32-4.82-18.35-4.82c-7.29,0-13.67,1.79-19.13,5.37
		c-5.46,3.58-9.27,8.52-11.42,14.82h-1.04v-18.9H90.27v99.43h35.73v-55.93c0.04-3.28,0.65-6.09,1.81-8.45
		c1.17-2.35,2.84-4.16,5.02-5.44c2.18-1.27,4.74-1.91,7.67-1.91c4.49,0,7.99,1.4,10.52,4.21c2.52,2.81,3.76,6.67,3.72,11.59v55.93
		h35.73v-63.44c0.02-2.97-0.23-5.8-0.7-8.49h35.07c-0.51,3.53-0.79,7.13-0.79,10.79c0,41.05,33.4,74.44,74.44,74.44
		c41.05,0,74.45-33.4,74.45-74.44C372.94,66.76,339.55,33.37,298.5,33.37z M298.5,163.53c-30.72,0-55.72-24.99-55.72-55.72
		c0-30.72,24.99-55.72,55.72-55.72c30.72,0,55.72,24.99,55.72,55.72C354.21,138.53,329.22,163.53,298.5,163.53z"/>
	
		<linearGradient id="SVGID_00000085952623003047661110000015326893594483562171_" gradientUnits="userSpaceOnUse" x1="34.3355" y1="64.4645" x2="368.2486" y2="64.4645">
		<stop  offset="0" style="stop-color:#E6007E"/>
		<stop  offset="0.131" style="stop-color:#E4007F"/>
		<stop  offset="0.2667" style="stop-color:#DD1783"/>
		<stop  offset="0.4047" style="stop-color:#D12E89"/>
		<stop  offset="0.5443" style="stop-color:#C04291"/>
		<stop  offset="0.6852" style="stop-color:#A6569D"/>
		<stop  offset="0.8271" style="stop-color:#8165A9"/>
		<stop  offset="0.9672" style="stop-color:#3E6FB6"/>
		<stop  offset="1" style="stop-color:#1D71B8"/>
	</linearGradient>
	<polygon style="fill:url(#SVGID_00000085952623003047661110000015326893594483562171_);" points="72.67,36.38 36.68,36.38 
		36.68,92.55 72.67,61.58 	"/>
	
		<linearGradient id="SVGID_00000106841862806480087530000012771243509237040831_" gradientUnits="userSpaceOnUse" x1="34.3355" y1="126.8768" x2="368.2486" y2="126.8768">
		<stop  offset="0" style="stop-color:#E6007E"/>
		<stop  offset="0.131" style="stop-color:#E4007F"/>
		<stop  offset="0.2667" style="stop-color:#DD1783"/>
		<stop  offset="0.4047" style="stop-color:#D12E89"/>
		<stop  offset="0.5443" style="stop-color:#C04291"/>
		<stop  offset="0.6852" style="stop-color:#A6569D"/>
		<stop  offset="0.8271" style="stop-color:#8165A9"/>
		<stop  offset="0.9672" style="stop-color:#3E6FB6"/>
		<stop  offset="1" style="stop-color:#1D71B8"/>
	</linearGradient>
	<polygon style="fill:url(#SVGID_00000106841862806480087530000012771243509237040831_);" points="72.67,84.81 36.68,115.77 
		36.68,168.95 72.67,168.95 	"/>
</g>
<g>
</g>
<g>
</g>
<g>
</g>
<g>
</g>
<g>
</g>
<g>
</g>
</svg>
